<svg width="140" height="33" viewBox="0 0 140 33" fill="none" xmlns="http://www.w3.org/2000/svg">
<g clip-path="url(#clip0)">
<path d="M16.076 32.6654C24.9546 32.6654 32.152 25.353 32.152 16.3327C32.152 7.31239 24.9546 0 16.076 0C7.19748 0 0 7.31239 0 16.3327C0 25.353 7.19748 32.6654 16.076 32.6654Z" fill="url(#paint0_linear)"/>
<path d="M4.47095 9.3103L13.4153 5.54053L16.7387 14.313L20.9989 24.1108L17.758 29.7197L12.3909 28.6854L4.47095 9.3103Z" fill="black"/>
<path d="M14.6847 3.19586L24.326 3.84587L23.0337 26.6244L17.956 29.9054L13.3099 26.026L14.6847 3.19586Z" fill="white"/>
<path d="M18.1401 28.1669C18.586 28.1669 18.9475 27.8083 18.9475 27.366C18.9475 26.9237 18.586 26.5651 18.1401 26.5651C17.6942 26.5651 17.3328 26.9237 17.3328 27.366C17.3328 27.8083 17.6942 28.1669 18.1401 28.1669Z" fill="black"/>
<path d="M42.7391 25.5708C41.7904 23.5932 40.8172 21.3234 39.8194 18.7612C38.7779 16.0578 37.8708 13.303 37.1016 10.5071H40.7613C40.9695 11.3523 41.2115 12.2594 41.4874 13.2284C41.7633 14.1974 42.0574 15.1668 42.3697 16.1367C42.682 17.1048 43.0044 18.0454 43.337 18.9585C43.6696 19.8716 43.978 20.6919 44.2624 21.4192C44.5459 20.6901 44.8493 19.8699 45.1726 18.9585C45.4959 18.0471 45.8132 17.1065 46.1246 16.1367C46.4378 15.1668 46.7369 14.1974 47.0221 13.2284C47.3073 12.2594 47.5536 11.3523 47.7609 10.5071H51.3052C50.5363 13.303 49.6297 16.0578 48.5886 18.7612C47.5908 21.3242 46.6176 23.5941 45.6689 25.5708H42.7391Z" fill="black"/>
<path d="M58.758 10.1383C59.8912 10.1383 60.8453 10.2819 61.6205 10.569C62.325 10.8137 62.9602 11.2289 63.4714 11.7788C63.948 12.3192 64.2898 12.9681 64.4679 13.6708C64.6738 14.4644 64.7741 15.2824 64.7662 16.1031V25.2303C64.2364 25.3464 63.4384 25.4856 62.372 25.6481C61.175 25.8208 59.967 25.9027 58.758 25.8932C57.9386 25.9011 57.1209 25.8146 56.3207 25.6353C55.6432 25.4895 55.002 25.2056 54.4356 24.8008C53.9127 24.4128 53.4938 23.8981 53.2169 23.3035C52.9233 22.6896 52.7769 21.9313 52.7777 21.0285C52.7777 20.1687 52.9427 19.4378 53.2728 18.836C53.5982 18.2471 54.0607 17.748 54.6196 17.3825C55.2221 16.9932 55.89 16.72 56.5898 16.5764C57.358 16.4105 58.1414 16.3283 58.9268 16.3314C59.3247 16.3328 59.7223 16.3569 60.1175 16.4036C60.5663 16.4572 61.0114 16.5386 61.4504 16.6474V16.0696C61.4525 15.681 61.4047 15.2939 61.3083 14.9179C61.2191 14.5502 61.0418 14.2106 60.7922 13.9293C60.5426 13.648 60.2284 13.4338 59.8776 13.3058C59.409 13.1386 58.9142 13.0603 58.4178 13.0749C57.6869 13.0701 56.9569 13.1279 56.2356 13.2477C55.6865 13.3341 55.1458 13.4687 54.6196 13.6501L54.1944 10.8334C54.8176 10.6346 55.4539 10.4807 56.0985 10.373C56.9764 10.2148 57.8664 10.1362 58.758 10.1383ZM59.0423 23.1242C60.1002 23.1242 60.9042 23.0666 61.4542 22.9514V19.0875C61.1838 19.0129 60.9091 18.9552 60.6317 18.9147C60.2375 18.8548 59.8394 18.8259 59.4409 18.8282C59.0586 18.8294 58.6768 18.8583 58.2984 18.9147C57.9354 18.9653 57.5822 19.0723 57.2512 19.2319C56.9491 19.3764 56.6896 19.5987 56.4984 19.8768C56.3002 20.1893 56.2018 20.5564 56.2166 20.9279C56.2166 21.7533 56.4705 22.3246 56.9782 22.6419C57.486 22.9591 58.174 23.1199 59.0423 23.1242Z" fill="black"/>
<path d="M72.6721 23.0662C73.5794 23.0662 74.2412 22.9557 74.6575 22.7347C75.0739 22.5138 75.2817 22.135 75.2808 21.5985C75.2808 21.0981 75.0587 20.6854 74.6144 20.3604C74.1701 20.0354 73.4376 19.6799 72.417 19.2938C71.8331 19.081 71.261 18.836 70.7033 18.56C70.2156 18.3235 69.7623 18.0197 69.3564 17.6572C68.9772 17.3075 68.6745 16.8809 68.4678 16.4049C68.2346 15.8333 68.1234 15.2179 68.1416 14.5994C68.1416 13.2185 68.6426 12.1292 69.6446 11.3313C70.6466 10.5334 72.0065 10.1353 73.7245 10.137C74.5611 10.1347 75.3958 10.2167 76.2164 10.3821C76.8223 10.4948 77.4189 10.6539 78.0012 10.858L77.3779 13.6798C76.911 13.4775 76.427 13.3182 75.932 13.2039C75.2626 13.0515 74.578 12.9792 73.8921 12.9885C73.193 12.9885 72.626 13.1085 72.191 13.3483C71.988 13.4489 71.8182 13.6073 71.7023 13.8043C71.5864 14.0012 71.5295 14.2282 71.5386 14.4575C71.534 14.6847 71.5772 14.9103 71.6655 15.1191C71.7657 15.3312 71.9167 15.5144 72.1047 15.6517C72.3608 15.8439 72.6361 16.0082 72.926 16.1418C73.3329 16.3319 73.7494 16.4998 74.1739 16.6448C74.88 16.9043 75.5705 17.2057 76.2418 17.5476C76.7577 17.8084 77.2312 18.1481 77.6457 18.5548C78.0054 18.9158 78.2812 19.3538 78.4531 19.8368C78.6346 20.3934 78.7205 20.9775 78.707 21.5637C78.707 23.003 78.1827 24.0924 77.1342 24.8318C76.0856 25.5712 74.5881 25.9409 72.6417 25.9409C71.3393 25.9409 70.2907 25.8304 69.4961 25.6095C68.9298 25.4625 68.3717 25.2847 67.8242 25.0768L68.4221 22.1737C69.0189 22.4137 69.6299 22.6157 70.2514 22.7786C71.0426 22.9806 71.8564 23.0773 72.6721 23.0662Z" fill="black"/>
<path d="M85.7371 6.1067C85.7371 6.76058 85.5289 7.27774 85.1138 7.66207C84.7143 8.03959 84.1867 8.24568 83.6412 8.23728C83.0861 8.24915 82.5477 8.04313 82.1382 7.66207C81.7219 7.27516 81.515 6.75929 81.515 6.1067C81.515 5.45411 81.7219 4.90728 82.1382 4.52296C82.5477 4.1419 83.0861 3.93588 83.6412 3.94775C84.1866 3.94001 84.714 4.14601 85.1138 4.52296C85.5293 4.90728 85.7371 5.4352 85.7371 6.1067ZM85.3689 25.5708H81.9415V10.5123H85.3689V25.5708Z" fill="black"/>
<path d="M89.5631 6.53877L92.9906 5.96356V10.5123H98.2612V13.4206H92.9931V19.5531C92.9931 20.7628 93.1818 21.6265 93.5593 22.1441C93.9367 22.6617 94.579 22.9196 95.4863 22.9179C96.0453 22.9256 96.6028 22.8575 97.1441 22.7154C97.5314 22.612 97.9128 22.4871 98.2866 22.3414L98.8528 25.1052C98.3448 25.3163 97.8242 25.4942 97.2939 25.6378C96.5563 25.8354 95.7959 25.9313 95.0331 25.9229C93.9744 25.9229 93.0908 25.7784 92.3825 25.4895C91.7192 25.2358 91.1367 24.8028 90.698 24.2372C90.2628 23.6501 89.9622 22.9715 89.8183 22.2511C89.6389 21.3753 89.5537 20.4824 89.5644 19.5879L89.5631 6.53877Z" fill="black"/>
<path d="M105.406 6.1067C105.406 6.76058 105.197 7.27774 104.782 7.66207C104.383 8.03959 103.855 8.24568 103.31 8.23728C102.755 8.24881 102.217 8.04282 101.808 7.66207C101.392 7.27516 101.185 6.75929 101.185 6.1067C101.185 5.45411 101.392 4.90728 101.808 4.52296C102.218 4.1419 102.756 3.93588 103.311 3.94775C103.856 3.94001 104.384 4.14601 104.784 4.52296C105.198 4.90728 105.406 5.4352 105.406 6.1067ZM105.037 25.5708H101.61V10.5123H105.037V25.5708Z" fill="black"/>
<path d="M109.75 24.5042C109.756 24.6755 109.726 24.8462 109.661 25.0048C109.597 25.1633 109.501 25.3062 109.378 25.4237C109.131 25.6518 108.81 25.7783 108.477 25.7783C108.144 25.7783 107.823 25.6518 107.576 25.4237C107.455 25.3053 107.36 25.1621 107.297 25.0036C107.234 24.8452 107.204 24.675 107.211 24.5042C107.205 24.3323 107.235 24.1612 107.298 24.0016C107.361 23.842 107.456 23.6974 107.576 23.5769C107.82 23.344 108.142 23.2144 108.477 23.2144C108.812 23.2144 109.134 23.344 109.378 23.5769C109.5 23.6964 109.596 23.8407 109.66 24.0004C109.725 24.1602 109.755 24.3318 109.75 24.5042Z" fill="#EE3C24"/>
<path d="M111.353 21.3625C111.348 20.7672 111.445 20.1756 111.638 19.6137C111.816 19.0926 112.093 18.6129 112.456 18.2027C112.816 17.8011 113.257 17.4824 113.748 17.2677C114.291 17.0348 114.875 16.9193 115.465 16.9285C116.226 16.9246 116.98 17.0727 117.685 17.3644L117.272 18.9585C117.029 18.8549 116.776 18.7742 116.518 18.7173C116.224 18.6513 115.923 18.6189 115.622 18.6206C114.87 18.6206 114.299 18.8596 113.908 19.3377C113.517 19.8157 113.321 20.4902 113.32 21.3612C113.32 22.1995 113.506 22.8633 113.876 23.3525C114.247 23.8417 114.871 24.0863 115.749 24.0863C116.074 24.0867 116.399 24.0543 116.717 23.9896C116.999 23.9357 117.276 23.855 117.543 23.7484L117.813 25.3606C117.506 25.4978 117.183 25.5953 116.852 25.6507C116.415 25.7377 115.972 25.7809 115.527 25.7797C114.895 25.7935 114.267 25.6813 113.677 25.4495C113.18 25.2475 112.735 24.933 112.376 24.53C112.024 24.1233 111.762 23.6449 111.607 23.1268C111.434 22.5554 111.348 21.9603 111.353 21.3625Z" fill="#EE3C24"/>
<path d="M126.637 21.347C126.645 21.9665 126.548 22.5827 126.352 23.1693C126.18 23.6872 125.906 24.1641 125.546 24.5712C125.194 24.9607 124.764 25.2687 124.284 25.474C123.77 25.6937 123.216 25.8035 122.657 25.7964C122.101 25.804 121.55 25.6942 121.039 25.474C120.562 25.2669 120.135 24.9591 119.784 24.5712C119.424 24.1635 119.146 23.687 118.968 23.1693C118.766 22.5841 118.667 21.9672 118.675 21.347C118.666 20.7297 118.765 20.1157 118.968 19.5337C119.148 19.0167 119.428 18.542 119.793 18.1382C120.146 17.7524 120.576 17.4473 121.054 17.2432C121.562 17.0297 122.107 16.9227 122.657 16.9285C123.209 16.9229 123.757 17.0299 124.268 17.2432C124.75 17.4438 125.184 17.7493 125.537 18.1382C125.897 18.5442 126.175 19.0184 126.354 19.5337C126.553 20.1163 126.649 20.7303 126.637 21.347ZM124.67 21.347C124.67 20.5087 124.493 19.8449 124.138 19.3557C123.962 19.127 123.737 18.942 123.479 18.8149C123.222 18.6877 122.94 18.6216 122.654 18.6216C122.368 18.6216 122.086 18.6877 121.828 18.8149C121.571 18.942 121.346 19.127 121.169 19.3557C120.816 19.8441 120.638 20.5078 120.637 21.347C120.637 22.1862 120.814 22.8581 121.169 23.3628C121.344 23.5935 121.569 23.7803 121.827 23.9088C122.084 24.0374 122.367 24.1042 122.654 24.1042C122.941 24.1042 123.224 24.0374 123.481 23.9088C123.738 23.7803 123.963 23.5935 124.138 23.3628C124.493 22.8675 124.67 22.1956 124.67 21.347Z" fill="#EE3C24"/>
<path d="M133.35 21.1368C133.35 20.2564 133.241 19.6197 133.025 19.2268C132.808 18.8338 132.403 18.6374 131.81 18.6374C131.576 18.6391 131.343 18.6555 131.112 18.6864C130.858 18.7186 130.667 18.7457 130.54 18.7663V25.5708H128.62V17.4109C129.098 17.2803 129.582 17.1778 130.072 17.1039C130.699 17.0058 131.333 16.9575 131.968 16.9595C132.446 16.9438 132.923 17.0204 133.372 17.1852C133.713 17.3194 134.024 17.5226 134.285 17.7823C134.427 17.6805 134.575 17.5887 134.729 17.5076C134.925 17.4051 135.126 17.3163 135.334 17.2419C135.564 17.1583 135.8 17.091 136.039 17.0407C136.287 16.9867 136.54 16.9594 136.793 16.9595C137.339 16.9407 137.882 17.0369 138.389 17.2419C138.781 17.4095 139.121 17.6823 139.372 18.0312C139.623 18.3984 139.791 18.8171 139.865 19.2577C139.958 19.7764 140.003 20.3027 140 20.8299V25.5695H138.079V21.1368C138.079 20.2564 137.974 19.6197 137.762 19.2268C137.55 18.8338 137.143 18.6374 136.54 18.6374C136.242 18.6359 135.947 18.6878 135.667 18.7908C135.45 18.8642 135.242 18.9643 135.048 19.0888C135.135 19.367 135.194 19.6535 135.223 19.9438C135.255 20.2652 135.271 20.5881 135.27 20.9111V25.5708H133.35V21.1368Z" fill="#EE3C24"/>
</g>
<defs>
<linearGradient id="paint0_linear" x1="21.5764" y1="31.6852" x2="10.2654" y2="1.09662" gradientUnits="userSpaceOnUse">
<stop stop-color="#ED3424"/>
<stop offset="1" stop-color="#F4A81C"/>
</linearGradient>
<clipPath id="clip0">
<rect width="140" height="32.6667" fill="white"/>
</clipPath>
</defs>
</svg>
